# xmcd
# Track frame offsets:
# 150
# 18923
# 31756
# 43456
# 60069
# 72614
# 85104
# 99518
# 115823
# 129067
# 141323
# 160625
# 172880
# 175176
# 197998
#
# Disc length: 2810 seconds
# Revision: 1
# Processed by: cddbd v1.5.2PL0 Copyright (c) Steve Scherf et al.
# Submitted via: VisiTrax 2.10.3.257 - For more info visit www.synapsa.com
#
DISCID=bd0af80f
DTITLE=Watson, Aaron - Angels and Outlaws
DYEAR=2008
DGENRE=Country
TTITLE0=Tulsa
TTITLE1=Whiskey On The Fire
TTITLE2=Wake Up And Smell The Coffee
TTITLE3=Heart Of Life
TTITLE4=Love Makin' Song
TTITLE5=Breaker Breaker One Nine
TTITLE6=Can't Be A Cowboy Forever
TTITLE7=Roller Coaster Ride
TTITLE8=Hearts Are Breaking Across Texas
TTITLE9=Angels And Outlaws
TTITLE10=Sweet Contradiction
TTITLE11=Dancin' Shoes
TTITLE12=Phillipians 3:12-14
TTITLE13=Barbed Wire Halo
TTITLE14=That's What I Like About A Country Song
EXTD=
EXTT0=
EXTT1=
EXTT2=
EXTT3=
EXTT4=
EXTT5=
EXTT6=
EXTT7=
EXTT8=
EXTT9=
EXTT10=
EXTT11=
EXTT12=
EXTT13=
EXTT14=
PLAYORDER=
